<svg width="128" height="32" viewBox="0 0 128 32" fill="none" xmlns="http://www.w3.org/2000/svg">
<rect width="127.55" height="32" rx="7.18339" fill="#2B300E"/>
<path d="M19.2074 11.5536L18.6059 10.4733L20.0162 10.5378L19.3535 9.53339L20.6426 9.55559L19.9442 8.66609L21.2837 8.77889L20.54 7.85488L21.6878 7.52428C18.1541 5.54127 16.2937 9.56009 16.0861 13.2837C15.0109 9.51269 11.8396 5.64117 8.6494 9.01739L9.89381 8.93069L9.40301 10.0896L10.7164 9.50489L10.2616 10.614L11.5501 10.1346L11.2816 10.971C9.50081 10.4013 7.8688 10.827 7.18359 13.1574L8.2498 12.5856L8.3464 13.8453L9.24611 12.789L9.35141 13.9878L10.2775 13.0386L10.4881 14.3019L11.4724 13.2321L11.803 14.6043L12.691 13.6749L12.9061 14.4813C10.4314 14.8704 8.6035 16.2063 10.1854 18.7578L10.4089 17.7864L11.2867 18.5112L11.0998 17.337L11.9437 18.0189L11.8411 16.8951L12.7861 17.556L12.6376 16.3239L13.7203 16.9836L13.6108 15.8943L13.9288 16.0785C14.0476 16.4532 14.2879 16.7625 14.6194 16.9497C14.7145 17.0037 14.8168 17.0442 14.9221 17.076L16.3597 25H16.8169L16.765 24.7144L18.7043 24.3544L16.6357 24.0028L16.4035 22.7218L18.3125 22.3666L16.2763 22.0219L16.0378 20.7076L17.8007 20.3797L15.9205 20.0608L15.6745 18.7047L17.3522 18.3927L15.5629 18.0891L15.3907 17.1405C15.6282 17.135 15.8618 17.0794 16.0762 16.9773C16.1932 17.0991 16.3231 17.2029 16.4671 17.2779L15.817 17.3988L17.6282 17.7063L18.0479 19.1004L16.5136 19.386L18.221 19.6753L18.6449 21.0838L17.0897 21.373L18.8204 21.6667L19.2386 23.0557L17.6018 23.3602L19.4234 23.6692L19.8242 25H20.294L17.9261 17.1339C18.1546 16.9284 18.2954 16.6429 18.3194 16.3365C18.3291 16.191 18.3154 16.0448 18.2786 15.9036L18.9233 15.4983L18.7658 16.53L19.7864 15.8604L19.5866 17.0298L20.4812 16.3641L20.3294 17.4282L21.1334 16.7478L20.9021 17.8635L21.7388 17.1417L21.8918 18.0477C23.5148 15.4899 21.7601 14.3151 19.4129 14.1117L19.6757 13.2033L20.5634 14.061L20.8946 12.7941L21.8789 13.7814L22.0892 12.6159L23.015 13.4919L23.1212 12.3855L24.02 13.3599L24.1166 12.1974L25.1837 12.7257C24.2597 9.82709 21.6185 10.1172 19.2074 11.5536ZM12.4003 11.4447C12.1743 11.3261 11.9426 11.219 11.7058 11.1237L12.5617 10.7793L12.4003 11.4447ZM13.3945 12.0444C13.2802 11.9664 13.1656 11.8914 13.0507 11.8191L13.4785 11.6556L13.3945 12.0444ZM13.6132 14.397L13.816 14.1909L13.894 14.3763C13.8004 14.3821 13.7067 14.389 13.6132 14.397ZM18.6314 14.0847C18.5864 14.0028 18.5324 13.9257 18.4721 13.8525L18.551 13.6797L18.9842 14.0859C18.8678 14.0817 18.7493 14.0844 18.6314 14.0847ZM18.296 12.1584L18.0029 11.5995L19.0835 11.6286C18.814 11.7946 18.5513 11.9713 18.296 12.1584Z" fill="#EBE212"/>
<path d="M41.5587 10.4H44.7627V23H41.5587V17.96H37.0047V23H33.8007V10.4H37.0047V15.224H41.5587V10.4ZM52.062 14.594L50.928 17.87H53.196L52.062 14.594ZM45.834 23L50.532 10.4H53.592L58.29 23H54.978L54.114 20.534H50.01L49.164 23H45.834ZM59.3769 23V10.4H64.9209C67.6929 10.4 69.2769 12.128 69.2769 14.486C69.2769 15.692 68.7369 16.502 67.8369 16.988C68.5929 17.528 69.0789 18.356 69.1869 19.382L69.5829 23H66.3609L65.9649 19.85C65.8749 19.148 65.3349 18.68 64.6329 18.68H62.5989V23H59.3769ZM62.5989 15.944H64.7049C65.7309 15.944 66.2169 15.26 66.2169 14.486C66.2169 13.712 65.7309 13.028 64.7049 13.028H62.5989V15.944ZM71.2948 23V10.4H76.5148C78.7648 10.4 80.5828 11.516 80.5828 13.64C80.5828 14.828 79.8808 15.728 79.1788 16.124C80.2768 16.592 81.2488 17.6 81.2488 19.202C81.2488 21.65 79.2868 23 76.6048 23H71.2948ZM74.4448 20.264H76.3708C77.7208 20.264 78.2608 19.832 78.2608 19.004C78.2608 18.176 77.7208 17.708 76.3708 17.708H74.4448V20.264ZM74.4448 15.044H76.2448C77.2528 15.044 77.6668 14.612 77.6668 13.964C77.6668 13.316 77.2528 12.884 76.1728 12.884H74.4448V15.044ZM88.8209 23.144C85.0409 23.144 82.2509 20.408 82.2509 16.7C82.2509 12.992 85.0409 10.256 88.8209 10.256C92.5649 10.256 95.3369 12.992 95.3369 16.7C95.3369 20.408 92.5649 23.144 88.8209 23.144ZM85.4549 16.7C85.4549 18.824 86.8409 20.408 88.8029 20.408C90.7469 20.408 92.1329 18.824 92.1329 16.7C92.1329 14.576 90.7469 12.992 88.8029 12.992C86.8409 12.992 85.4549 14.576 85.4549 16.7ZM101.999 23.144C98.9749 23.144 96.8509 21.578 96.8509 18.212V10.4H99.8209V18.176C99.8209 19.76 100.739 20.372 101.999 20.372C103.241 20.372 104.177 19.76 104.177 18.176V10.4H107.129V18.212C107.129 21.578 105.023 23.144 101.999 23.144ZM109.176 23V10.4H114.72C117.492 10.4 119.076 12.128 119.076 14.486C119.076 15.692 118.536 16.502 117.636 16.988C118.392 17.528 118.878 18.356 118.986 19.382L119.382 23H116.16L115.764 19.85C115.674 19.148 115.134 18.68 114.432 18.68H112.398V23H109.176ZM112.398 15.944H114.504C115.53 15.944 116.016 15.26 116.016 14.486C116.016 13.712 115.53 13.028 114.504 13.028H112.398V15.944Z" fill="#EBE212"/>
</svg>
